<svg width="25" height="25" viewBox="0 0 25 25" fill="none" xmlns="http://www.w3.org/2000/svg">
<path d="M18.8438 8.64219C18.8438 6.9448 18.2116 5.31694 17.0864 4.1167C15.9612 2.91647 14.435 2.24219 12.8438 2.24219C11.2525 2.24219 9.72633 2.91647 8.60111 4.1167C7.47589 5.31694 6.84375 6.9448 6.84375 8.64219C6.84375 16.1089 3.84375 18.2422 3.84375 18.2422H21.8438C21.8438 18.2422 18.8438 16.1089 18.8438 8.64219Z" stroke="#62C1BF" stroke-width="1.5" stroke-linecap="round" stroke-linejoin="round"/>
<path d="M14.5738 21.2422C14.398 21.5453 14.1456 21.7968 13.842 21.9717C13.5384 22.1466 13.1941 22.2386 12.8438 22.2386C12.4934 22.2386 12.1492 22.1466 11.8455 21.9717C11.5419 21.7968 11.2896 21.5453 11.1138 21.2422" stroke="#62C1BF" stroke-width="1.5" stroke-linecap="round" stroke-linejoin="round"/>
</svg>
