<svg width="41" height="40" viewBox="0 0 41 40" fill="none" xmlns="http://www.w3.org/2000/svg">
<circle cx="20.2222" cy="20" r="20" fill="#62C1BF"/>
<g clip-path="url(#clip0_4483_2453)">
<path d="M19.7779 8.88672C19.8122 10.3162 19.5527 11.7382 19.0143 13.0712C18.4759 14.4042 17.6692 15.6221 16.6403 16.6552C15.6114 17.6883 14.3806 18.5163 13.0182 19.0917C11.6559 19.6671 10.1888 19.9787 8.70093 20.0087" stroke="#224443" stroke-width="2" stroke-miterlimit="10" stroke-linecap="round"/>
<path d="M19.7779 8.88672C19.7436 10.3162 20.0031 11.7382 20.5414 13.0712C21.0798 14.4042 21.8865 15.6221 22.9154 16.6552C23.9443 17.6883 25.1752 18.5163 26.5375 19.0917C27.8999 19.6671 29.367 19.9787 30.8548 20.0087" stroke="#224443" stroke-width="2" stroke-miterlimit="10" stroke-linecap="round"/>
<path d="M19.7779 31.1307C19.8122 29.7012 19.5527 28.2793 19.0143 26.9462C18.4759 25.6132 17.6692 24.3953 16.6403 23.3622C15.6114 22.3292 14.3806 21.5012 13.0182 20.9258C11.6559 20.3503 10.1888 20.0387 8.70093 20.0088" stroke="#224443" stroke-width="2" stroke-miterlimit="10" stroke-linecap="round"/>
<path d="M19.7779 31.1307C19.7436 29.7012 20.0031 28.2793 20.5414 26.9462C21.0798 25.6132 21.8865 24.3953 22.9154 23.3622C23.9443 22.3292 25.1752 21.5012 26.5375 20.9258C27.8999 20.3503 29.367 20.0387 30.8548 20.0088" stroke="#224443" stroke-width="2" stroke-miterlimit="10" stroke-linecap="round"/>
<ellipse cx="19.7778" cy="20" rx="3" ry="7" fill="#224443"/>
<ellipse cx="19.7778" cy="20" rx="3" ry="7" transform="rotate(90 19.7778 20)" fill="#224443"/>
</g>
<defs>
<clipPath id="clip0_4483_2453">
<rect width="24" height="24" fill="white" transform="translate(7.77783 8)"/>
</clipPath>
</defs>
</svg>
