<svg width="24" height="24" viewBox="0 0 24 24" fill="none" xmlns="http://www.w3.org/2000/svg">
<g clip-path="url(#clip0_4009_10584)">
<path d="M11.9998 0.887207C12.0341 2.31671 11.7746 3.73867 11.2363 5.0717C10.6979 6.40473 9.89114 7.62262 8.86225 8.6557C7.83335 9.68877 6.60249 10.5167 5.24014 11.0922C3.87779 11.6676 2.4107 11.9792 0.922852 12.0091" stroke="#C3C3C3" stroke-width="1.5" stroke-miterlimit="10" stroke-linecap="round"/>
<path d="M11.9996 0.887207C11.9653 2.31671 12.2247 3.73867 12.7631 5.0717C13.3015 6.40473 14.1082 7.62262 15.1371 8.6557C16.166 9.68877 17.3969 10.5167 18.7592 11.0922C20.1216 11.6676 21.5887 11.9792 23.0765 12.0091" stroke="#C3C3C3" stroke-width="1.5" stroke-miterlimit="10" stroke-linecap="round"/>
<path d="M11.9998 23.1307C12.0341 21.7012 11.7746 20.2793 11.2363 18.9462C10.6979 17.6132 9.89114 16.3953 8.86225 15.3622C7.83335 14.3292 6.60249 13.5012 5.24014 12.9258C3.87779 12.3503 2.4107 12.0387 0.922852 12.0088" stroke="#C3C3C3" stroke-width="1.5" stroke-miterlimit="10" stroke-linecap="round"/>
<path d="M11.9996 23.1307C11.9653 21.7012 12.2247 20.2793 12.7631 18.9462C13.3015 17.6132 14.1082 16.3953 15.1371 15.3622C16.166 14.3292 17.3969 13.5012 18.7592 12.9258C20.1216 12.3503 21.5887 12.0387 23.0765 12.0088" stroke="#C3C3C3" stroke-width="1.5" stroke-miterlimit="10" stroke-linecap="round"/>
</g>
<defs>
<clipPath id="clip0_4009_10584">
<rect width="24" height="24" fill="white"/>
</clipPath>
</defs>
</svg>
