<svg width="126" height="484" viewBox="0 0 126 484" fill="none" xmlns="http://www.w3.org/2000/svg">
<g opacity="0.1">
<path fill-rule="evenodd" clip-rule="evenodd" d="M446.789 103.869H204.628L129.771 333.713L325.708 475.777L521.646 333.713L446.789 103.869ZM124.901 335.3L201.608 99.7275H449.802L526.522 335.3L325.708 480.891L124.901 335.3Z" fill="white"/>
<path fill-rule="evenodd" clip-rule="evenodd" d="M452.982 96.0525H198.442L119.765 337.6L325.712 486.879L531.659 337.6L452.982 96.0525ZM115.21 339.07L195.621 92.1904H455.802L536.213 339.07L325.712 491.658L115.21 339.07Z" fill="white"/>
<path fill-rule="evenodd" clip-rule="evenodd" d="M459.376 87.1653H193.124L110.83 340.401L326.247 496.904L541.67 340.401L459.376 87.1653ZM106.596 341.771L190.514 83.5762H461.986L545.903 341.771L326.247 501.348L106.596 341.771Z" fill="white"/>
<path fill-rule="evenodd" clip-rule="evenodd" d="M465.56 78.29H186.934L100.812 343.198L326.247 506.929L551.688 343.198L465.56 78.29ZM97.8794 345.182L96.906 344.469L184.528 74.9619H467.978L555.594 344.469L326.247 511.039L97.8794 345.182Z" fill="white"/>
<path fill-rule="evenodd" clip-rule="evenodd" d="M471.742 69.3984H180.758L90.8184 346.001L326.25 516.955L561.688 346.001L471.742 69.3984ZM87.2153 347.166L178.538 66.3486H473.968L565.285 347.166L326.25 520.73L87.2153 347.166Z" fill="white"/>
<path fill-rule="evenodd" clip-rule="evenodd" d="M571.7 348.808L477.933 60.5176H174.573L80.7998 348.808L326.25 526.987L571.7 348.808ZM78.3434 350.469L77.5247 349.874L172.229 58.6951L172.545 57.7344H479.955L574.975 349.874L327.069 529.831L326.25 530.42L78.3434 350.469Z" fill="white"/>
<path fill-rule="evenodd" clip-rule="evenodd" d="M484.119 51.631H168.382L70.7935 351.603L326.253 537.006L581.707 351.603L484.119 51.631ZM67.8342 352.57L166.558 49.1211H485.943L584.666 352.57L326.253 540.111L67.8342 352.57Z" fill="white"/>
<path fill-rule="evenodd" clip-rule="evenodd" d="M490.298 42.7443H162.196L60.7745 354.417L326.25 547.038L591.719 354.417L490.298 42.7443ZM58.8013 355.749L58.1436 355.278L160.309 41.2815L160.564 40.5068H491.936L594.102 354.503L594.356 355.278L326.25 549.801L58.8013 355.749Z" fill="white"/>
<path fill-rule="evenodd" clip-rule="evenodd" d="M496.49 34.9346H156.01L50.7678 358.289L326.247 558.134L601.732 358.289L496.49 34.9346ZM49.03 359.459L48.4529 359.038L154.352 33.6514L154.582 32.9697H497.918L603.83 358.356L604.047 359.038L326.247 560.569L49.03 359.459Z" fill="white"/>
<path fill-rule="evenodd" clip-rule="evenodd" d="M611.727 361.093L502.673 26.0654H149.834L40.7734 361.093L326.25 568.158L611.727 361.093ZM39.2714 362.104L38.7625 361.738L148.406 24.9504L148.598 24.3555H503.908L613.545 361.149L613.738 361.738L326.753 569.887L326.25 570.259L39.2714 362.104Z" fill="white"/>
<path fill-rule="evenodd" clip-rule="evenodd" d="M508.859 17.1738H143.641L30.7542 363.897L326.247 578.19L621.74 363.897L508.859 17.1738ZM29.4877 364.752L29.0718 364.442L142.443 16.2441L142.598 15.7422H509.896L623.273 363.952L623.428 364.442L326.247 579.95L29.4877 364.752Z" fill="white"/>
<path fill-rule="evenodd" clip-rule="evenodd" d="M631.753 366.7L515.045 8.28711H137.461L20.7471 366.7L326.25 588.203L631.753 366.7ZM19.7288 367.387L19.3811 367.133L136.486 7.5245L136.617 7.12793H515.889L632.988 366.737L633.119 367.133L326.598 589.386L326.25 589.64L19.7288 367.387Z" fill="white"/>
<path fill-rule="evenodd" clip-rule="evenodd" d="M641.754 370.162L521.226 -0.603516H131.274L10.74 370.162L326.244 599.304L641.754 370.162ZM9.95767 370.689L9.69067 370.503L130.628 -1.48535H521.872L642.81 370.503L326.505 600.216L326.244 600.408L9.95767 370.689Z" fill="white"/>
<path fill-rule="evenodd" clip-rule="evenodd" d="M124.635 -10.0996L124.567 -9.88237L0 373.196L0.186301 373.333L326.25 610.098L326.43 609.962L652.5 373.196L652.438 372.985L527.871 -10.0996H124.635ZM0.726562 372.96L125.095 -9.48535H527.411L651.773 372.96L326.25 609.322L0.726562 372.96Z" fill="white"/>
</g>
</svg>
