<svg width="32" height="32" viewBox="0 0 32 32" fill="none" xmlns="http://www.w3.org/2000/svg">
<path d="M2.66663 25.3333V12C2.66663 10.5272 3.86053 9.33333 5.33329 9.33333H5.99996C6.83931 9.33333 7.62968 8.93815 8.13329 8.26667L11.0933 4.32C11.2444 4.11856 11.4815 4 11.7333 4H20.2666C20.5184 4 20.7555 4.11856 20.9066 4.32L23.8666 8.26667C24.3702 8.93815 25.1606 9.33333 26 9.33333H26.6666C28.1394 9.33333 29.3333 10.5272 29.3333 12V25.3333C29.3333 26.8061 28.1394 28 26.6666 28H5.33329C3.86053 28 2.66663 26.8061 2.66663 25.3333Z" stroke="#62C1BF" stroke-width="2" stroke-linecap="round" stroke-linejoin="round"/>
<path d="M16 22.6667C18.9455 22.6667 21.3333 20.2789 21.3333 17.3333C21.3333 14.3878 18.9455 12 16 12C13.0544 12 10.6666 14.3878 10.6666 17.3333C10.6666 20.2789 13.0544 22.6667 16 22.6667Z" stroke="#62C1BF" stroke-width="2" stroke-linecap="round" stroke-linejoin="round"/>
</svg>
